<?xml version="1.0" encoding="UTF-8" standalone="no"?>
<!-- Created with Inkscape (http://www.inkscape.org/) -->

<svg
   width="118.80949mm"
   height="38.944199mm"
   viewBox="0 0 118.80949 38.944199"
   version="1.1"
   id="svg1"
   xml:space="preserve"
   xmlns="http://www.w3.org/2000/svg"
   xmlns:svg="http://www.w3.org/2000/svg"><defs
     id="defs1"><rect
       x="46.829769"
       y="267.90985"
       width="192.7644"
       height="72.241272"
       id="rect2" /><clipPath
       clipPathUnits="userSpaceOnUse"
       id="clipPath6"><rect
         style="fill:none;fill-opacity:1;stroke:none;stroke-width:0.281473;stroke-dasharray:none;stroke-opacity:1"
         id="rect7"
         width="28.710732"
         height="4.6022148"
         x="46.316372"
         y="276.23569" /></clipPath><rect
       x="46.829769"
       y="267.90985"
       width="192.7644"
       height="72.241272"
       id="rect2-5" /><clipPath
       clipPathUnits="userSpaceOnUse"
       id="clipPath3"><rect
         style="fill:none;fill-opacity:1;stroke:none;stroke-width:0.281473;stroke-dasharray:none;stroke-opacity:1"
         id="rect4"
         width="28.002701"
         height="7.1865339"
         x="45.904354"
         y="269.06046" /></clipPath><rect
       x="46.829769"
       y="267.90985"
       width="192.7644"
       height="72.241272"
       id="rect2-4" /><rect
       x="46.829769"
       y="267.90985"
       width="192.7644"
       height="72.241272"
       id="rect2-5-6" /><clipPath
       clipPathUnits="userSpaceOnUse"
       id="clipPath3-8"><rect
         style="fill:none;fill-opacity:1;stroke:none;stroke-width:0.281473;stroke-dasharray:none;stroke-opacity:1"
         id="rect4-5"
         width="28.002701"
         height="7.1865339"
         x="45.904354"
         y="269.06046" /></clipPath></defs><g
     id="layer1"
     transform="translate(-72.739384,-112.99221)"><path
       d="m 47.682078,279.38696 v -9.048 l 1.656,-0.276 v 5.508 q 0.324,-0.372 0.648,-0.804 0.336,-0.444 0.636,-0.888 0.312,-0.444 0.528,-0.804 h 1.98 q -0.312,0.408 -0.756,0.912 -0.432,0.492 -0.876,0.984 -0.444,0.48 -0.816,0.876 0.336,0.324 0.72,0.78 0.396,0.444 0.78,0.936 0.384,0.492 0.696,0.972 0.312,0.468 0.492,0.852 h -1.884 q -0.168,-0.348 -0.432,-0.756 -0.252,-0.42 -0.552,-0.84 -0.3,-0.42 -0.6,-0.78 -0.3,-0.372 -0.564,-0.612 v 2.988 z m 6.389001,0 v -6.12 q 0.444,-0.12 1.092,-0.228 0.66,-0.108 1.416,-0.108 1.008,0 1.56,0.372 0.564,0.36 0.78,1.008 0.228,0.648 0.228,1.512 v 3.564 h -1.656 v -3.348 q 0,-0.588 -0.084,-0.948 -0.084,-0.372 -0.312,-0.54 -0.216,-0.18 -0.624,-0.18 -0.18,0 -0.372,0.024 -0.18,0.012 -0.384,0.036 v 4.956 z m 8.909002,0.18 q -0.888,0 -1.56,-0.42 -0.672,-0.432 -1.056,-1.188 -0.372,-0.756 -0.372,-1.74 0,-0.996 0.384,-1.74 0.396,-0.744 1.068,-1.152 0.672,-0.42 1.536,-0.42 0.888,0 1.548,0.42 0.672,0.408 1.044,1.152 0.384,0.744 0.384,1.74 0,0.984 -0.372,1.74 -0.372,0.756 -1.044,1.188 -0.66,0.42 -1.56,0.42 z m -0.024,-1.44 q 0.648,0 0.972,-0.528 0.336,-0.528 0.336,-1.368 0,-0.852 -0.312,-1.368 -0.3,-0.516 -0.972,-0.516 -0.624,0 -0.972,0.516 -0.336,0.516 -0.336,1.368 0,0.84 0.312,1.368 0.312,0.528 0.972,0.528 z m 4.145003,1.26 q -0.216,-0.792 -0.396,-1.8 -0.18,-1.008 -0.324,-2.16 -0.132,-1.152 -0.24,-2.352 h 1.416 q 0.024,0.576 0.048,1.14 0.036,0.564 0.06,1.14 0.036,0.564 0.084,1.14 0.06,0.564 0.144,1.164 0.18,-0.516 0.3,-0.948 0.132,-0.444 0.228,-0.84 0.108,-0.396 0.192,-0.768 0.084,-0.372 0.18,-0.756 h 1.2 q 0.084,0.384 0.168,0.756 0.084,0.372 0.18,0.768 0.096,0.384 0.216,0.828 0.12,0.444 0.276,0.96 0.108,-0.828 0.168,-1.572 0.06,-0.744 0.096,-1.476 0.036,-0.732 0.06,-1.536 h 1.416 q -0.096,1.212 -0.252,2.364 -0.144,1.14 -0.336,2.148 -0.192,0.996 -0.408,1.8 h -1.248 q -0.156,-0.42 -0.288,-0.768 -0.12,-0.348 -0.24,-0.672 -0.108,-0.336 -0.228,-0.684 -0.108,-0.36 -0.228,-0.792 -0.132,0.432 -0.252,0.78 -0.108,0.348 -0.216,0.672 -0.096,0.324 -0.228,0.684 -0.132,0.348 -0.3,0.78 z"
       id="text2"
       clip-path="url(#clipPath6)"
       style="font-weight:bold;font-family:'Ubuntu Mono';-inkscape-font-specification:'Ubuntu Mono Bold';letter-spacing:-0.330992px;white-space:pre;fill:#ff5c00;stroke:#ff5c00;stroke-width:0.281473"
       transform="matrix(4.0335167,0,0,4.0335167,-119.01937,-976.26924)"
       aria-label="know" /><path
       d="m 47.682078,279.38696 v -9.048 l 1.656,-0.276 v 5.508 q 0.324,-0.372 0.648,-0.804 0.336,-0.444 0.636,-0.888 0.312,-0.444 0.528,-0.804 h 1.98 q -0.312,0.408 -0.756,0.912 -0.432,0.492 -0.876,0.984 -0.444,0.48 -0.816,0.876 0.336,0.324 0.72,0.78 0.396,0.444 0.78,0.936 0.384,0.492 0.696,0.972 0.312,0.468 0.492,0.852 h -1.884 q -0.168,-0.348 -0.432,-0.756 -0.252,-0.42 -0.552,-0.84 -0.3,-0.42 -0.6,-0.78 -0.3,-0.372 -0.564,-0.612 v 2.988 z m 6.389001,0 v -6.12 q 0.444,-0.12 1.092,-0.228 0.66,-0.108 1.416,-0.108 1.008,0 1.56,0.372 0.564,0.36 0.78,1.008 0.228,0.648 0.228,1.512 v 3.564 h -1.656 v -3.348 q 0,-0.588 -0.084,-0.948 -0.084,-0.372 -0.312,-0.54 -0.216,-0.18 -0.624,-0.18 -0.18,0 -0.372,0.024 -0.18,0.012 -0.384,0.036 v 4.956 z m 8.909002,0.18 q -0.888,0 -1.56,-0.42 -0.672,-0.432 -1.056,-1.188 -0.372,-0.756 -0.372,-1.74 0,-0.996 0.384,-1.74 0.396,-0.744 1.068,-1.152 0.672,-0.42 1.536,-0.42 0.888,0 1.548,0.42 0.672,0.408 1.044,1.152 0.384,0.744 0.384,1.74 0,0.984 -0.372,1.74 -0.372,0.756 -1.044,1.188 -0.66,0.42 -1.56,0.42 z m -0.024,-1.44 q 0.648,0 0.972,-0.528 0.336,-0.528 0.336,-1.368 0,-0.852 -0.312,-1.368 -0.3,-0.516 -0.972,-0.516 -0.624,0 -0.972,0.516 -0.336,0.516 -0.336,1.368 0,0.84 0.312,1.368 0.312,0.528 0.972,0.528 z m 4.145003,1.26 q -0.216,-0.792 -0.396,-1.8 -0.18,-1.008 -0.324,-2.16 -0.132,-1.152 -0.24,-2.352 h 1.416 q 0.024,0.576 0.048,1.14 0.036,0.564 0.06,1.14 0.036,0.564 0.084,1.14 0.06,0.564 0.144,1.164 0.18,-0.516 0.3,-0.948 0.132,-0.444 0.228,-0.84 0.108,-0.396 0.192,-0.768 0.084,-0.372 0.18,-0.756 h 1.2 q 0.084,0.384 0.168,0.756 0.084,0.372 0.18,0.768 0.096,0.384 0.216,0.828 0.12,0.444 0.276,0.96 0.108,-0.828 0.168,-1.572 0.06,-0.744 0.096,-1.476 0.036,-0.732 0.06,-1.536 h 1.416 q -0.096,1.212 -0.252,2.364 -0.144,1.14 -0.336,2.148 -0.192,0.996 -0.408,1.8 h -1.248 q -0.156,-0.42 -0.288,-0.768 -0.12,-0.348 -0.24,-0.672 -0.108,-0.336 -0.228,-0.684 -0.108,-0.36 -0.228,-0.792 -0.132,0.432 -0.252,0.78 -0.108,0.348 -0.216,0.672 -0.096,0.324 -0.228,0.684 -0.132,0.348 -0.3,0.78 z"
       id="text2-1"
       clip-path="url(#clipPath3)"
       style="font-weight:bold;font-family:'Ubuntu Mono';-inkscape-font-specification:'Ubuntu Mono Bold';letter-spacing:-0.330992px;white-space:pre;fill:#ff5c00;stroke:#ff5c00;stroke-width:0.281473"
       transform="matrix(4.0335167,0,0,4.0335167,-115.50119,-975.74358)"
       aria-label="know" /><path
       d="m 50.202078,279.53096 q -0.48,0 -0.852,-0.312 -0.36,-0.312 -0.36,-0.888 0,-0.564 0.36,-0.876 0.372,-0.312 0.852,-0.312 0.468,0 0.828,0.312 0.372,0.312 0.372,0.876 0,0.576 -0.372,0.888 -0.36,0.312 -0.828,0.312 z m 0,-4.068 q -0.48,0 -0.852,-0.312 -0.36,-0.312 -0.36,-0.888 0,-0.564 0.36,-0.876 0.372,-0.312 0.852,-0.312 0.468,0 0.828,0.312 0.372,0.312 0.372,0.876 0,0.576 -0.372,0.888 -0.36,0.312 -0.828,0.312 z"
       id="text2-2"
       style="font-weight:bold;font-family:'Ubuntu Mono';-inkscape-font-specification:'Ubuntu Mono Bold';letter-spacing:-0.339257px;white-space:pre;fill:#ff5c00;stroke:#ff5c00;stroke-width:0.275736"
       transform="matrix(3.8804418,0,0,3.8804418,-8.4489102,-933.97689)"
       aria-label=":" /></g></svg>
